{
    "asset" : {
        "generator" : "Khronos glTF Blender I/O v1.2.75",
        "version" : "2.0"
    },
    "scene" : 0,
    "scenes" : [
        {
            "extras" : {
                "blenderkitUI" : {
                    "assetbar_on" : 0,
                    "turn_off" : 0
                }
            },
            "name" : "Scene",
            "nodes" : [
                0
            ]
        }
    ],
    "nodes" : [
        {
            "mesh" : 0,
            "name" : "d20-JonathanLanderos"
        }
    ],
    "meshes" : [
        {
            "name" : "d20-JonathanLanderos",
            "primitives" : [
                {
                    "attributes" : {
                        "POSITION" : 0,
                        "NORMAL" : 1
                    },
                    "indices" : 2
                }
            ]
        }
    ],
    "accessors" : [
        {
            "bufferView" : 0,
            "componentType" : 5126,
            "count" : 36604,
            "max" : [
                2.0436742305755615,
                2.0436742305755615,
                2.0436742305755615
            ],
            "min" : [
                -2.0436742305755615,
                -2.0436742305755615,
                -2.0436742305755615
            ],
            "type" : "VEC3"
        },
        {
            "bufferView" : 1,
            "componentType" : 5126,
            "count" : 36604,
            "type" : "VEC3"
        },
        {
            "bufferView" : 2,
            "componentType" : 5123,
            "count" : 36852,
            "type" : "SCALAR"
        }
    ],
    "bufferViews" : [
        {
            "buffer" : 0,
            "byteLength" : 439248,
            "byteOffset" : 0
        },
        {
            "buffer" : 0,
            "byteLength" : 439248,
            "byteOffset" : 439248
        },
        {
            "buffer" : 0,
            "byteLength" : 73704,
            "byteOffset" : 878496
        }
    ],
    "buffers" : [
        {
            "byteLength" : 952200,
            "uri" : "data:application/octet-stream;base64,"
        }
    ]
}
