{
    "asset" : {
        "generator" : "Khronos glTF Blender I/O v1.2.75",
        "version" : "2.0"
    },
    "scene" : 0,
    "scenes" : [
        {
            "extras" : {
                "blenderkitUI" : {
                    "assetbar_on" : 0,
                    "turn_off" : 0
                }
            },
            "name" : "Scene",
            "nodes" : [
                0
            ]
        }
    ],
    "nodes" : [
        {
            "mesh" : 0,
            "name" : "99-003-00000002 (D4)",
            "translation" : [
                0.0034122467041015625,
                10.708860397338867,
                -5.279545783996582
            ]
        }
    ],
    "meshes" : [
        {
            "name" : "99-003-00000002 (D4)",
            "primitives" : [
                {
                    "attributes" : {
                        "POSITION" : 0,
                        "NORMAL" : 1
                    },
                    "indices" : 2
                }
            ]
        }
    ],
    "accessors" : [
        {
            "bufferView" : 0,
            "componentType" : 5126,
            "count" : 14291,
            "max" : [
                9.996895790100098,
                6.611747741699219,
                5.279445648193359
            ],
            "min" : [
                -10.003103256225586,
                -10.708761215209961,
                -11.048367500305176
            ],
            "type" : "VEC3"
        },
        {
            "bufferView" : 1,
            "componentType" : 5126,
            "count" : 14291,
            "type" : "VEC3"
        },
        {
            "bufferView" : 2,
            "componentType" : 5123,
            "count" : 15432,
            "type" : "SCALAR"
        }
    ],
    "bufferViews" : [
        {
            "buffer" : 0,
            "byteLength" : 171492,
            "byteOffset" : 0
        },
        {
            "buffer" : 0,
            "byteLength" : 171492,
            "byteOffset" : 171492
        },
        {
            "buffer" : 0,
            "byteLength" : 30864,
            "byteOffset" : 342984
        }
    ],
    "buffers" : [
        {
            "byteLength" : 373848,
            "uri" : "data:application/octet-stream;base64,"
        }
    ]
}
