{
    "asset" : {
        "generator" : "Khronos glTF Blender I/O v1.2.75",
        "version" : "2.0"
    },
    "scene" : 0,
    "scenes" : [
        {
            "extras" : {
                "blenderkitUI" : {
                    "assetbar_on" : 0,
                    "turn_off" : 0
                },
                "uuid" : "0133a594-df2b-4645-bc9e-ee1310ee4f39"
            },
            "name" : "Scene",
            "nodes" : [
                0
            ]
        }
    ],
    "nodes" : [
        {
            "mesh" : 0,
            "name" : "Cube.001",
            "scale" : [
                1.600000023841858,
                1.600000023841858,
                1.600000023841858
            ]
        }
    ],
    "materials" : [
        {
            "doubleSided" : true,
            "name" : "Cube1White",
            "pbrMetallicRoughness" : {}
        },
        {
            "doubleSided" : true,
            "name" : "Cube1Black",
            "pbrMetallicRoughness" : {}
        }
    ],
    "meshes" : [
        {
            "name" : "Cube.001",
            "primitives" : [
                {
                    "attributes" : {
                        "POSITION" : 0,
                        "NORMAL" : 1
                    },
                    "indices" : 2,
                    "material" : 0
                },
                {
                    "attributes" : {
                        "POSITION" : 3,
                        "NORMAL" : 4
                    },
                    "indices" : 5,
                    "material" : 1
                }
            ]
        }
    ],
    "accessors" : [
        {
            "bufferView" : 0,
            "componentType" : 5126,
            "count" : 24701,
            "max" : [
                1.0000004768371582,
                1.000000238418579,
                1.0000004768371582
            ],
            "min" : [
                -1.0000003576278687,
                -1.0000003576278687,
                -1.0000004768371582
            ],
            "type" : "VEC3"
        },
        {
            "bufferView" : 1,
            "componentType" : 5126,
            "count" : 24701,
            "type" : "VEC3"
        },
        {
            "bufferView" : 2,
            "componentType" : 5123,
            "count" : 146304,
            "type" : "SCALAR"
        },
        {
            "bufferView" : 3,
            "componentType" : 5126,
            "count" : 7077,
            "max" : [
                0.9854052066802979,
                0.9854049682617188,
                0.9854053258895874
            ],
            "min" : [
                -0.9854050874710083,
                -0.9854049682617188,
                -0.9854052066802979
            ],
            "type" : "VEC3"
        },
        {
            "bufferView" : 4,
            "componentType" : 5126,
            "count" : 7077,
            "type" : "VEC3"
        },
        {
            "bufferView" : 5,
            "componentType" : 5123,
            "count" : 40320,
            "type" : "SCALAR"
        }
    ],
    "bufferViews" : [
        {
            "buffer" : 0,
            "byteLength" : 296412,
            "byteOffset" : 0
        },
        {
            "buffer" : 0,
            "byteLength" : 296412,
            "byteOffset" : 296412
        },
        {
            "buffer" : 0,
            "byteLength" : 292608,
            "byteOffset" : 592824
        },
        {
            "buffer" : 0,
            "byteLength" : 84924,
            "byteOffset" : 885432
        },
        {
            "buffer" : 0,
            "byteLength" : 84924,
            "byteOffset" : 970356
        },
        {
            "buffer" : 0,
            "byteLength" : 80640,
            "byteOffset" : 1055280
        }
    ],
    "buffers" : [
        {
            "byteLength" : 1135920,
            "uri" : "data:application/octet-stream;base64,"
        }
    ]
}
